# xmcd
#
# Track frame offsets:
#	150
#	23841
#	42087
#	61664
#	81013
#	100849
#	120252
#	137053
#	155137
#	175789
#	196974
#	205997
#	225250
#	242892
#
# Disc length: 3425 seconds
# Revision: 0
# Processed by: cddbd v1.5.2PL0 Copyright (c) Steve Scherf et al.
# Submitted via: dBpowerAMP V12.0
#
DISCID=ab0d5f0e
DTITLE=Dave Widow And The Line Up - Waiting For The World To End
DYEAR=2012
DGENRE=Blues
TTITLE0=Bluesman
TTITLE1=Long Gone
TTITLE2=Leave A Piece Of Me
TTITLE3=Piss You Off
TTITLE4=Baby Wants To Rock
TTITLE5=Reach Out
TTITLE6=Nothin' On You
TTITLE7=Wait On Love
TTITLE8=Dont Press Send
TTITLE9=I Look For Things Like That
TTITLE10=Picture Of You
TTITLE11=Second Hand Love
TTITLE12=Waiting For The World To End
TTITLE13=Sweet Janine
EXTD=
EXTT0=
EXTT1=
EXTT2=
EXTT3=
EXTT4=
EXTT5=
EXTT6=
EXTT7=
EXTT8=
EXTT9=
EXTT10=
EXTT11=
EXTT12=
EXTT13=
PLAYORDER=
